<?xml version="1.0" encoding="UTF-8" standalone="no"?><svg xmlns="http://www.w3.org/2000/svg" xmlns:xlink="http://www.w3.org/1999/xlink" contentStyleType="text/css" height="167px" preserveAspectRatio="none" style="width:692px;height:167px;background:#FFFFFF;" version="1.1" viewBox="0 0 692 167" width="692px" zoomAndPan="magnify"><defs/><g><!--MD5=[3fd616f346a44cd59a91eb10b19e157c]
class User--><g id="elem_User"><rect codeLine="27" fill="#F1F1F1" height="153.6563" id="User" rx="2.5" ry="2.5" style="stroke:#181818;stroke-width:0.5;" width="130" x="520.5" y="7"/><ellipse cx="566.75" cy="23" fill="#ADD1B2" rx="11" ry="11" style="stroke:#181818;stroke-width:1.0;"/><path d="M569.5156,18.875 Q569.6719,18.6563 569.8594,18.5469 Q570.0469,18.4375 570.2656,18.4375 Q570.6406,18.4375 570.875,18.7031 Q571.1094,18.9531 571.1094,19.5625 L571.1094,21.0156 Q571.1094,21.625 570.875,21.8906 Q570.6406,22.1563 570.2656,22.1563 Q569.9219,22.1563 569.7188,21.9531 Q569.5156,21.7656 569.4063,21.25 Q569.3594,20.8906 569.1719,20.7031 Q568.8438,20.3281 568.2344,20.1094 Q567.625,19.8906 567,19.8906 Q566.2344,19.8906 565.5938,20.2188 Q564.9688,20.5469 564.4688,21.2969 Q563.9844,22.0469 563.9844,23.0781 L563.9844,24.1719 Q563.9844,25.4063 564.875,26.2344 Q565.7656,27.0469 567.3594,27.0469 Q568.2969,27.0469 568.9531,26.7969 Q569.3438,26.6406 569.7656,26.2031 Q570.0313,25.9375 570.1719,25.8594 Q570.3281,25.7813 570.5313,25.7813 Q570.8594,25.7813 571.1094,26.0469 Q571.375,26.2969 571.375,26.6406 Q571.375,26.9844 571.0313,27.3906 Q570.5313,27.9688 569.7344,28.2969 Q568.6563,28.75 567.3594,28.75 Q565.8438,28.75 564.6406,28.125 Q563.6563,27.625 562.9688,26.5625 Q562.2813,25.4844 562.2813,24.2031 L562.2813,23.0469 Q562.2813,21.7188 562.8906,20.5781 Q563.5156,19.4219 564.6094,18.8125 Q565.7031,18.1875 566.9375,18.1875 Q567.6719,18.1875 568.3125,18.3594 Q568.9688,18.5156 569.5156,18.875 Z " fill="#000000"/><text fill="#000000" font-family="sans-serif" font-size="14" lengthAdjust="spacing" textLength="29" x="587.25" y="28.7285">User</text><line style="stroke:#181818;stroke-width:0.5;" x1="521.5" x2="649.5" y1="39" y2="39"/><text fill="#000000" font-family="sans-serif" font-size="14" lengthAdjust="spacing" textLength="74" x="526.5" y="57.5332">name:string</text><text fill="#000000" font-family="sans-serif" font-size="14" lengthAdjust="spacing" textLength="94" x="526.5" y="75.1426">surname:string</text><text fill="#000000" font-family="sans-serif" font-size="14" lengthAdjust="spacing" textLength="69" x="526.5" y="92.752">login:string</text><text fill="#000000" font-family="sans-serif" font-size="14" lengthAdjust="spacing" textLength="99" x="526.5" y="110.3613">password:string</text><text fill="#000000" font-family="sans-serif" font-size="14" lengthAdjust="spacing" textLength="118" x="526.5" y="127.9707">trainings:Training[]</text><text fill="#000000" font-family="sans-serif" font-size="14" lengthAdjust="spacing" textLength="83" x="526.5" y="145.5801">follows:User[]</text><line style="stroke:#181818;stroke-width:0.5;" x1="521.5" x2="649.5" y1="152.6563" y2="152.6563"/></g><!--MD5=[465fa02c4fd1e4005f16231203875816]
class LineSegment--><g id="elem_LineSegment"><rect codeLine="13" fill="#F1F1F1" height="118.4375" id="LineSegment" rx="2.5" ry="2.5" style="stroke:#181818;stroke-width:0.5;" width="115" x="163" y="25"/><ellipse cx="178" cy="41" fill="#ADD1B2" rx="11" ry="11" style="stroke:#181818;stroke-width:1.0;"/><path d="M180.7656,36.875 Q180.9219,36.6563 181.1094,36.5469 Q181.2969,36.4375 181.5156,36.4375 Q181.8906,36.4375 182.125,36.7031 Q182.3594,36.9531 182.3594,37.5625 L182.3594,39.0156 Q182.3594,39.625 182.125,39.8906 Q181.8906,40.1563 181.5156,40.1563 Q181.1719,40.1563 180.9688,39.9531 Q180.7656,39.7656 180.6563,39.25 Q180.6094,38.8906 180.4219,38.7031 Q180.0938,38.3281 179.4844,38.1094 Q178.875,37.8906 178.25,37.8906 Q177.4844,37.8906 176.8438,38.2188 Q176.2188,38.5469 175.7188,39.2969 Q175.2344,40.0469 175.2344,41.0781 L175.2344,42.1719 Q175.2344,43.4063 176.125,44.2344 Q177.0156,45.0469 178.6094,45.0469 Q179.5469,45.0469 180.2031,44.7969 Q180.5938,44.6406 181.0156,44.2031 Q181.2813,43.9375 181.4219,43.8594 Q181.5781,43.7813 181.7813,43.7813 Q182.1094,43.7813 182.3594,44.0469 Q182.625,44.2969 182.625,44.6406 Q182.625,44.9844 182.2813,45.3906 Q181.7813,45.9688 180.9844,46.2969 Q179.9063,46.75 178.6094,46.75 Q177.0938,46.75 175.8906,46.125 Q174.9063,45.625 174.2188,44.5625 Q173.5313,43.4844 173.5313,42.2031 L173.5313,41.0469 Q173.5313,39.7188 174.1406,38.5781 Q174.7656,37.4219 175.8594,36.8125 Q176.9531,36.1875 178.1875,36.1875 Q178.9219,36.1875 179.5625,36.3594 Q180.2188,36.5156 180.7656,36.875 Z " fill="#000000"/><text fill="#000000" font-family="sans-serif" font-size="14" lengthAdjust="spacing" textLength="83" x="192" y="46.7285">LineSegment</text><line style="stroke:#181818;stroke-width:0.5;" x1="164" x2="277" y1="57" y2="57"/><text fill="#000000" font-family="sans-serif" font-size="14" lengthAdjust="spacing" textLength="82" x="169" y="75.5332">points:Point[]</text><text fill="#000000" font-family="sans-serif" font-size="14" lengthAdjust="spacing" textLength="59" x="169" y="93.1426">date:long</text><text fill="#000000" font-family="sans-serif" font-size="14" lengthAdjust="spacing" textLength="100" x="169" y="110.752">distance:double</text><text fill="#000000" font-family="sans-serif" font-size="14" lengthAdjust="spacing" textLength="78" x="169" y="128.3613">temp:double</text><line style="stroke:#181818;stroke-width:0.5;" x1="164" x2="277" y1="135.4375" y2="135.4375"/></g><!--MD5=[4034599964776293c58b00793c120f39]
class Training--><g id="elem_Training"><rect codeLine="20" fill="#F1F1F1" height="118.4375" id="Training" rx="2.5" ry="2.5" style="stroke:#181818;stroke-width:0.5;" width="172" x="313.5" y="25"/><ellipse cx="369.25" cy="41" fill="#ADD1B2" rx="11" ry="11" style="stroke:#181818;stroke-width:1.0;"/><path d="M372.0156,36.875 Q372.1719,36.6563 372.3594,36.5469 Q372.5469,36.4375 372.7656,36.4375 Q373.1406,36.4375 373.375,36.7031 Q373.6094,36.9531 373.6094,37.5625 L373.6094,39.0156 Q373.6094,39.625 373.375,39.8906 Q373.1406,40.1563 372.7656,40.1563 Q372.4219,40.1563 372.2188,39.9531 Q372.0156,39.7656 371.9063,39.25 Q371.8594,38.8906 371.6719,38.7031 Q371.3438,38.3281 370.7344,38.1094 Q370.125,37.8906 369.5,37.8906 Q368.7344,37.8906 368.0938,38.2188 Q367.4688,38.5469 366.9688,39.2969 Q366.4844,40.0469 366.4844,41.0781 L366.4844,42.1719 Q366.4844,43.4063 367.375,44.2344 Q368.2656,45.0469 369.8594,45.0469 Q370.7969,45.0469 371.4531,44.7969 Q371.8438,44.6406 372.2656,44.2031 Q372.5313,43.9375 372.6719,43.8594 Q372.8281,43.7813 373.0313,43.7813 Q373.3594,43.7813 373.6094,44.0469 Q373.875,44.2969 373.875,44.6406 Q373.875,44.9844 373.5313,45.3906 Q373.0313,45.9688 372.2344,46.2969 Q371.1563,46.75 369.8594,46.75 Q368.3438,46.75 367.1406,46.125 Q366.1563,45.625 365.4688,44.5625 Q364.7813,43.4844 364.7813,42.2031 L364.7813,41.0469 Q364.7813,39.7188 365.3906,38.5781 Q366.0156,37.4219 367.1094,36.8125 Q368.2031,36.1875 369.4375,36.1875 Q370.1719,36.1875 370.8125,36.3594 Q371.4688,36.5156 372.0156,36.875 Z " fill="#000000"/><text fill="#000000" font-family="sans-serif" font-size="14" lengthAdjust="spacing" textLength="52" x="389.75" y="46.7285">Training</text><line style="stroke:#181818;stroke-width:0.5;" x1="314.5" x2="484.5" y1="57" y2="57"/><text fill="#000000" font-family="sans-serif" font-size="14" lengthAdjust="spacing" textLength="160" x="319.5" y="75.5332">segments: LineSegment[]</text><text fill="#000000" font-family="sans-serif" font-size="14" lengthAdjust="spacing" textLength="59" x="319.5" y="93.1426">date:long</text><text fill="#000000" font-family="sans-serif" font-size="14" lengthAdjust="spacing" textLength="100" x="319.5" y="110.752">distance:double</text><text fill="#000000" font-family="sans-serif" font-size="14" lengthAdjust="spacing" textLength="78" x="319.5" y="128.3613">temp:double</text><line style="stroke:#181818;stroke-width:0.5;" x1="314.5" x2="484.5" y1="135.4375" y2="135.4375"/></g><!--MD5=[138db94aa8b0c145698578fef474d9e2]
class Poin--><g id="elem_Poin"><rect codeLine="7" fill="#F1F1F1" height="100.8281" id="Poin" rx="2.5" ry="2.5" style="stroke:#181818;stroke-width:0.5;" width="121" x="7" y="33.5"/><ellipse cx="49.45" cy="49.5" fill="#ADD1B2" rx="11" ry="11" style="stroke:#181818;stroke-width:1.0;"/><path d="M52.2156,45.375 Q52.3719,45.1563 52.5594,45.0469 Q52.7469,44.9375 52.9656,44.9375 Q53.3406,44.9375 53.575,45.2031 Q53.8094,45.4531 53.8094,46.0625 L53.8094,47.5156 Q53.8094,48.125 53.575,48.3906 Q53.3406,48.6563 52.9656,48.6563 Q52.6219,48.6563 52.4188,48.4531 Q52.2156,48.2656 52.1063,47.75 Q52.0594,47.3906 51.8719,47.2031 Q51.5438,46.8281 50.9344,46.6094 Q50.325,46.3906 49.7,46.3906 Q48.9344,46.3906 48.2938,46.7188 Q47.6688,47.0469 47.1688,47.7969 Q46.6844,48.5469 46.6844,49.5781 L46.6844,50.6719 Q46.6844,51.9063 47.575,52.7344 Q48.4656,53.5469 50.0594,53.5469 Q50.9969,53.5469 51.6531,53.2969 Q52.0438,53.1406 52.4656,52.7031 Q52.7313,52.4375 52.8719,52.3594 Q53.0281,52.2813 53.2313,52.2813 Q53.5594,52.2813 53.8094,52.5469 Q54.075,52.7969 54.075,53.1406 Q54.075,53.4844 53.7313,53.8906 Q53.2313,54.4688 52.4344,54.7969 Q51.3563,55.25 50.0594,55.25 Q48.5438,55.25 47.3406,54.625 Q46.3563,54.125 45.6688,53.0625 Q44.9813,51.9844 44.9813,50.7031 L44.9813,49.5469 Q44.9813,48.2188 45.5906,47.0781 Q46.2156,45.9219 47.3094,45.3125 Q48.4031,44.6875 49.6375,44.6875 Q50.3719,44.6875 51.0125,44.8594 Q51.6688,45.0156 52.2156,45.375 Z " fill="#000000"/><text fill="#000000" font-family="sans-serif" font-size="14" lengthAdjust="spacing" textLength="28" x="69.55" y="55.2285">Poin</text><line style="stroke:#181818;stroke-width:0.5;" x1="8" x2="127" y1="65.5" y2="65.5"/><text fill="#000000" font-family="sans-serif" font-size="14" lengthAdjust="spacing" textLength="97" x="13" y="84.0332">latitude: double</text><text fill="#000000" font-family="sans-serif" font-size="14" lengthAdjust="spacing" textLength="109" x="13" y="101.6426">longitude: double</text><text fill="#000000" font-family="sans-serif" font-size="14" lengthAdjust="spacing" textLength="59" x="13" y="119.252">date:long</text><line style="stroke:#181818;stroke-width:0.5;" x1="8" x2="127" y1="126.3281" y2="126.3281"/></g><!--MD5=[993a1ed30139d6bc9fd462e29443e622]
link User to User--><g id="link_User_User"><path codeLine="2" d="M650.9,55.19 C670.36,56.05 685.5,65.65 685.5,84 C685.5,100.63 673.07,110.07 656.25,112.34 " fill="none" id="User-to-User" style="stroke:#181818;stroke-width:1.0;"/><polygon fill="#181818" points="650.9,112.81,660.2194,115.9957,655.8803,112.3664,659.5096,108.0272,650.9,112.81" style="stroke:#181818;stroke-width:1.0;"/></g><!--MD5=[78d8e3ffd4fad63a64b4c58372826452]
link LineSegment to Training--><g id="link_LineSegment_Training"><path codeLine="3" d="M278.19,84 C288.14,84 298.09,84 308.05,84 " fill="none" id="LineSegment-to-Training" style="stroke:#181818;stroke-width:1.0;"/><polygon fill="#181818" points="313.25,84,304.25,80,308.25,84,304.25,88,313.25,84" style="stroke:#181818;stroke-width:1.0;"/></g><!--MD5=[72605eb6da850782c29200e4a4ae56c7]
link Poin to LineSegment--><g id="link_Poin_LineSegment"><path codeLine="4" d="M128.16,84 C137.99,84 147.82,84 157.65,84 " fill="none" id="Poin-to-LineSegment" style="stroke:#181818;stroke-width:1.0;"/><polygon fill="#181818" points="162.79,84,153.79,80,157.79,84,153.79,88,162.79,84" style="stroke:#181818;stroke-width:1.0;"/></g><!--MD5=[272e405a87add5533c358b300a3592a3]
link Training to User--><g id="link_Training_User"><path codeLine="5" d="M485.6,84 C495.46,84 505.32,84 515.17,84 " fill="none" id="Training-to-User" style="stroke:#181818;stroke-width:1.0;"/><polygon fill="#181818" points="520.33,84,511.33,80,515.33,84,511.33,88,520.33,84" style="stroke:#181818;stroke-width:1.0;"/></g><!--MD5=[220657c3c5ea1ea3a6cd84336b060036]
@startuml

User -> User
LineSegment->Training
Poin->LineSegment
Training->User

class Poin{
    latitude: double
    longitude: double
    date:long
}

class LineSegment{
    points:Point[]
    date:long
    distance:double
    temp:double
}

class Training{
    segments: LineSegment[]
    date:long
    distance:double
    temp:double
}

class User{
    name:string
    surname:string
    login:string
    password:string
    trainings:Training[]
    follows:User[]

}

@enduml

PlantUML version 1.2022.7(Mon Aug 22 20:01:30 MSK 2022)
(GPL source distribution)
Java Runtime: OpenJDK Runtime Environment
JVM: OpenJDK 64-Bit Server VM
Default Encoding: UTF-8
Language: ru
Country: RU
--></g></svg>